<svg xmlns="http://www.w3.org/2000/svg" viewBox="0 0 135.46666 135.46666">
  <g>
    <path
       style="display:inline;fill:#000000;stroke-width:0.580379"
       d="m 15.163989,125.53406 c 0,-6.05276 5.093286,-26.62413 9.604792,-38.792706 4.839987,-13.054601 11.558559,-27.88052 13.334242,-29.424791 1.865396,-1.622294 4.303935,-1.675041 5.963377,-0.128816 2.204776,2.054042 2.180723,3.655579 -0.119048,7.956613 -13.33989,24.944513 -18.81996,38.50232 -21.291985,52.67686 -0.723722,4.14969 -1.464661,7.71931 -1.646622,7.93244 -0.18193,0.21306 -1.571408,0.56926 -3.087627,0.79139 -2.645255,0.3874 -2.756794,0.34646 -2.756794,-1.01078 z m 60.140493,-16.2737 C 75.126519,106.62692 74.859118,97.936694 74.709667,89.948762 74.491717,78.30058 74.197912,74.247563 73.225683,69.476836 71.904155,62.991935 69.378375,54.485928 68.638505,54.028661 68.382703,53.87054 64.139972,53.356342 59.209751,52.885735 54.279561,52.415097 48.982427,51.711888 47.438308,51.323088 43.419663,50.311177 41.045502,47.717662 39.554345,42.710701 38.013767,37.53756 36.483782,36.244115 29.214627,33.969344 26.115249,32.999436 18.87839,30.183942 13.132657,27.712619 3.3992622,23.526176 2.6730976,23.108378 2.499409,21.594326 c -0.2423702,-2.110941 2.8067029,-4.984127 8.010246,-7.548552 3.410339,-1.680688 4.222493,-1.845372 8.705672,-1.765457 2.719492,0.04854 7.765343,0.636085 11.213013,1.305839 9.917219,1.926478 12.421966,1.72437 22.669528,-1.829285 l 8.786534,-3.0469976 14.509433,0.027473 c 17.408658,0.032357 22.648161,0.890604 31.478245,5.1595866 5.10043,2.465859 16.68054,9.881382 18.0981,11.589482 0.92519,1.11472 0.14317,2.66708 -1.34396,2.66708 -0.69616,0 -5.17338,-0.913101 -9.94945,-2.029134 -4.77601,-1.116002 -8.93095,-2.03011 -9.23327,-2.031301 -0.3022,-0.0013 1.75886,1.447171 4.58031,3.218641 2.82147,1.771501 6.26811,4.003994 7.65926,4.961112 3.85326,2.651086 3.16632,5.205192 -1.06481,3.959061 -2.79464,-0.823082 -18.654354,-4.015074 -18.871266,-3.798162 -0.101344,0.101344 1.436028,1.320704 3.416286,2.709785 13.12682,9.207934 20.26686,20.640944 28.85946,46.211376 1.62688,4.841331 2.95796,8.92002 2.95796,9.063794 0,0.377689 -4.52619,3.317543 -5.10754,3.317543 -0.26893,0 -1.20581,-2.393605 -2.08155,-5.319082 -6.7885,-22.677892 -15.06429,-37.900761 -25.69598,-47.266144 -7.864117,-6.927517 -9.482504,-8.674964 -9.482504,-10.238375 0,-3.255606 3.363636,-3.723467 11.895184,-1.654619 2.55231,0.618929 4.74265,1.023236 4.8674,0.898418 0.64595,-0.645944 -10.035343,-5.003909 -14.930032,-6.091461 -3.082773,-0.684986 -6.441342,-1.497873 -7.46351,-1.806392 -2.106271,-0.635749 -2.963388,-2.416865 -1.823821,-3.78992 1.068994,-1.288104 10.675313,-0.67418 19.932843,1.273879 10.90123,2.293909 10.86246,2.295924 5.88133,-0.310015 -7.51122,-3.929389 -11.583038,-4.74078 -25.39439,-5.060227 -14.95269,-0.346064 -19.558519,0.23596 -29.614841,3.741507 -9.857297,3.436133 -13.942763,3.561775 -24.580071,0.75611 -3.830488,-1.010324 -8.923317,-1.969457 -11.317349,-2.131362 -4.112084,-0.278085 -4.50534,-0.195667 -7.10966,1.484777 -1.5162184,0.978547 -2.756092,1.980843 -2.7552983,2.227242 0.0022,0.71426 17.4002633,6.995375 22.9797843,8.296329 9.074417,2.115887 12.498096,4.940813 14.184584,11.703768 1.179709,4.7308 2.398337,5.23816 15.068167,6.273453 9.275762,0.757972 11.092074,1.252511 13.021604,3.545627 1.622812,1.928615 3.897247,8.604512 5.614138,16.478768 1.30419,5.981266 2.407708,25.575072 2.137376,37.951549 l -0.16972,7.77185 -2.611738,0.77989 c -1.436395,0.42894 -2.653558,0.78388 -2.704688,0.78871 -0.05098,0.003 -0.238402,-2.14584 -0.415998,-4.77931 z"
       id="path847" />
  </g>
</svg>
